<svg width="104" height="104" viewBox="0 0 104 104" fill="none" xmlns="http://www.w3.org/2000/svg">
<rect width="104" height="104" fill="#F2F2F2"/>
<g id="DESKTOP" clip-path="url(#clip0_0_1)">
<rect width="1440" height="3619" transform="translate(-916 -1258)" fill="white"/>
<rect id="Rectangle" x="-916" y="-1258" width="1440" height="3622" fill="#1B2330"/>
<path id="Path 2" fill-rule="evenodd" clip-rule="evenodd" d="M-916 3.95432C-916 3.95432 -779.746 -4.08469 -659.889 -131.092C-540.032 -258.1 -565.991 -304.836 -366.995 -261.314C-168 -217.793 -184.95 -246.301 -57 -346.87C70.95 -447.439 154 -424.424 232 -302.203C310 -179.981 383 -139.308 516 -94.4255C649 -49.5433 526.091 2360.67 526.091 2360.67L-916 2360.65V3.95432Z" fill="#181F2B"/>
<g id="Group 30">
<g id="Group 6" clip-path="url(#clip1_0_1)">
<g id="icon-security">
<g id="Group 11">
<path id="Path" fill-rule="evenodd" clip-rule="evenodd" d="M61.703 44.5013L49.4724 56.9754L40.4743 47.7981L35.9753 52.3867L49.4724 66.1527L70.079 45.1369L65.5789 40.5482L61.703 44.5013Z" stroke="#62E0D9" stroke-width="3.06383"/>
<path id="Path_2" fill-rule="evenodd" clip-rule="evenodd" d="M74.9164 18.8499C69.5736 18.8499 64.263 17.7142 59.4342 15.3664C57.1215 14.2525 54.7552 12.8329 52.7102 11.0638C50.6652 12.8329 48.299 14.2525 45.9852 15.3664C41.1574 17.7142 35.8468 18.8499 30.504 18.8499H19.9149V59.4401C19.9149 66.5491 22.7308 73.3851 27.7406 78.333C35.0973 85.5829 52.7102 95.007 52.7102 95.007C52.7102 95.007 70.3231 85.5829 77.6788 78.333C82.6896 73.3851 85.5056 66.5491 85.5056 59.4401V18.8499H74.9164Z" stroke="#62E0D9" stroke-width="3.06383"/>
<path id="Path_3" fill-rule="evenodd" clip-rule="evenodd" d="M76.94 33.5321V59.7808C76.94 64.5234 75.0374 69.1219 71.7215 72.3958C67.1089 76.9429 56.5936 83.1652 52.7113 85.3951C48.8247 83.163 38.3008 76.9331 33.6936 72.3925C30.3798 69.1197 28.4804 64.5234 28.4804 59.7808V27.9268H30.504C37.2109 27.9268 43.8385 26.4285 49.6705 23.5936C50.7166 23.0902 51.738 22.5497 52.7113 21.984C53.6835 22.5486 54.7114 23.0935 55.7745 23.6067C61.5895 26.4329 68.2085 27.9268 74.9164 27.9268H76.94V33.5321Z" stroke="#62E0D9" stroke-width="3.06383"/>
</g>
</g>
</g>
</g>
</g>
<defs>
<clipPath id="clip0_0_1">
<rect width="1440" height="3619" fill="white" transform="translate(-916 -1258)"/>
</clipPath>
<clipPath id="clip1_0_1">
<rect width="384" height="215" fill="white" transform="translate(-140)"/>
</clipPath>
</defs>
</svg>
